<svg id="ach_5segment" xmlns="http://www.w3.org/2000/svg" xmlns:xlink="http://www.w3.org/1999/xlink" width="48.2" height="53.4" viewBox="0 0 48.2 53.4">
  <defs>
    <linearGradient id="linear-gradient" x1="8.88" y1="30.4" x2="51.12" y2="30.4" gradientUnits="userSpaceOnUse">
      <stop offset="0" stop-color="#fff"/>
      <stop offset="0.18" stop-color="#f9fbfe"/>
      <stop offset="0.42" stop-color="#e7f1fc"/>
      <stop offset="0.71" stop-color="#c9e0f9"/>
      <stop offset="1" stop-color="#a4cbf5"/>
    </linearGradient>
    <linearGradient id="linear-gradient-2" x1="18.32" y1="31.81" x2="34.83" y2="31.81" gradientTransform="translate(19.9 -9.1) rotate(30.7)" xlink:href="#linear-gradient"/>
  </defs>
  <g>
    <g>
      <path d="M28.2,4.2,7.7,15.8a3.5,3.5,0,0,0-1.8,3V41.2a3.4,3.4,0,0,0,1.7,3L28,56.6a3.8,3.8,0,0,0,3.7,0L52.3,45a3.4,3.4,0,0,0,1.8-3V18.7a3.5,3.5,0,0,0-1.8-3.1L31.8,4.2A3.8,3.8,0,0,0,28.2,4.2Z" transform="translate(-5.9 -3.7)" fill="#fff"/>
      <path d="M28.5,7.4,10.4,17.6a3.2,3.2,0,0,0-1.5,2.7V39.9a3,3,0,0,0,1.5,2.6L28.3,53.3a3.1,3.1,0,0,0,3.1.1L49.5,43.2a2.9,2.9,0,0,0,1.6-2.6V20.1a3.2,3.2,0,0,0-1.6-2.7L31.6,7.4A3.4,3.4,0,0,0,28.5,7.4Z" transform="translate(-5.9 -3.7)" fill="url(#linear-gradient)"/>
    </g>
    <g>
      <g>
        <path d="M42.5,35.5c0-7.1-5-15.7-11.3-19.3-3-1.7-5.8-1.9-7.8-.8L18.8,18l1.4,2.4a8.2,8.2,0,0,0-.2,2.3c0,7.1,5,15.7,11.2,19.3l2.2.9,1.4,2.4,4.6-2.7h0C41.3,41.4,42.5,39,42.5,35.5Z" transform="translate(-5.9 -3.7)" fill="#150035"/>
        <ellipse cx="26.6" cy="31.8" rx="9.2" ry="15.8" transform="matrix(0.86, -0.51, 0.51, 0.86, -18.4, 14.29)" fill="#a0b1d8"/>
        <g>
          <ellipse cx="26.6" cy="31.8" rx="6.7" ry="11.6" transform="translate(-18.4 14.3) rotate(-30.7)" fill="url(#linear-gradient-2)"/>
          <path d="M28.8,40.2c-4.6-2.6-8.3-8.9-8.3-14.1a6.2,6.2,0,0,1,1.8-4.8c-2.4.3-4,2.4-4,5.8,0,5.2,3.7,11.5,8.3,14.1,2.6,1.5,5,1.4,6.5.1A7.5,7.5,0,0,1,28.8,40.2Z" transform="translate(-5.9 -3.7)" fill="#150035"/>
        </g>
      </g>
      <g>
        <g>
          <path d="M26.3,27.4v8.7l3.5,2c.1.1.2,0,.2-.1V29.6h0l1.5.8c.1,0,.3-.1.2-.3l-3.4-5.8h-.2L24.6,26c-.2.1-.2.3,0,.3l1.6,1Z" transform="translate(-5.9 -3.7)" fill="#e0840b"/>
          <path d="M31.6,30.2l-1.1.3a.1.1,0,0,1-.1.1h-.1c-.3-.1-.3-1.1-.7-1.3s1.1.4,1.4.3.2.6.3.7h.2A.1.1,0,0,0,31.6,30.2Z" transform="translate(-5.9 -3.7)" fill="#e0840b"/>
          <path d="M29.9,38.1l-1.1.3c-.2-.1-.1-1-.3-1s.9.5,1,.4.2.2.2.3h.2Z" transform="translate(-5.9 -3.7)" fill="#e0840b"/>
        </g>
        <polygon points="22.2 20.5 21 20.8 21.3 21.3 22.2 20.5" fill="#e0840b"/>
        <path d="M25.1,27.7v8.5h.1l3.5,2.1c.1.1.2,0,.2-.2V29.8a.1.1,0,0,0-.1-.1l-.4-.3,1.9,1.1c.2.1.4,0,.3-.2l-3.4-5.8c-.1,0-.2-.1-.3,0l-3.5,1.8c-.1.1-.1.3,0,.3l1.7.9Z" transform="translate(-5.9 -3.7)" fill="#ffce44"/>
      </g>
    </g>
  </g>
</svg>
