<svg id="ach_100" xmlns="http://www.w3.org/2000/svg" xmlns:xlink="http://www.w3.org/1999/xlink" width="48.2" height="54.1" viewBox="0 0 48.2 54.1">
  <defs>
    <linearGradient id="linear-gradient" x1="8.81" y1="30.5" x2="51.06" y2="30.5" gradientUnits="userSpaceOnUse">
      <stop offset="0" stop-color="#fff"/>
      <stop offset="0.18" stop-color="#f9fbfe"/>
      <stop offset="0.42" stop-color="#e7f1fc"/>
      <stop offset="0.71" stop-color="#c9e0f9"/>
      <stop offset="1" stop-color="#a4cbf5"/>
    </linearGradient>
    <radialGradient id="radial-gradient" cx="28.97" cy="43.51" r="14.58" gradientUnits="userSpaceOnUse">
      <stop offset="0" stop-color="#f4c00b"/>
      <stop offset="1" stop-color="#f7931e"/>
    </radialGradient>
    <radialGradient id="radial-gradient-2" cx="30.73" cy="31.79" r="10.17" gradientUnits="userSpaceOnUse">
      <stop offset="0" stop-color="#b3106a"/>
      <stop offset="0.52" stop-color="#e21e93"/>
      <stop offset="1" stop-color="#730f60"/>
    </radialGradient>
    <radialGradient id="radial-gradient-3" cx="28.97" cy="39.5" r="14.58" xlink:href="#radial-gradient"/>
    <radialGradient id="radial-gradient-4" cx="30.73" cy="27.78" r="10.17" xlink:href="#radial-gradient-2"/>
    <radialGradient id="radial-gradient-5" cx="28.97" cy="35.48" r="14.58" xlink:href="#radial-gradient"/>
    <radialGradient id="radial-gradient-6" cx="30.73" cy="23.77" r="10.17" xlink:href="#radial-gradient-2"/>
    <radialGradient id="radial-gradient-7" cx="28.97" cy="31.47" r="14.58" xlink:href="#radial-gradient"/>
  </defs>
  <g>
    <g>
      <path d="M28.2,3.9,7.6,15.7a3.5,3.5,0,0,0-1.8,3.1V41.5a3.8,3.8,0,0,0,1.7,3L28,57a3.6,3.6,0,0,0,3.6.1L52.2,45.3A3.3,3.3,0,0,0,54,42.2V18.6a3.7,3.7,0,0,0-1.8-3.1L31.7,3.9A3.6,3.6,0,0,0,28.2,3.9Z" transform="translate(-5.8 -3.5)" fill="#fff"/>
      <path d="M28.4,7.2l-18,10.3a3.2,3.2,0,0,0-1.6,2.7V40.1a3.3,3.3,0,0,0,1.5,2.7L28.2,53.7a3.1,3.1,0,0,0,3.2.1L49.5,43.5a3,3,0,0,0,1.6-2.7V20.1a3,3,0,0,0-1.6-2.7L31.5,7.2A3.4,3.4,0,0,0,28.4,7.2Z" transform="translate(-5.8 -3.5)" fill="url(#linear-gradient)"/>
    </g>
    <g>
      <g>
        <g>
          <path d="M16.5,36.2v.4c.1,0,.1.1.1.2h0a.3.3,0,0,0,.1.2v.2c0,.1.1.1.1.2a.1.1,0,0,0,.1.1v.2c.1.1.1.1.1.2s.1.1.1.2h.1a.3.3,0,0,1,.1.2c.1.1.1.1.1.2l.2.2h.1c0,.1.1.1.1.2l.2.2h.1l.2.2.2.2a.1.1,0,0,1,.1.1c.1.1.2.1.2.2H19c.1.1.2.1.2.2h.2l.3.2h.1l.5.3.5.2a.1.1,0,0,0,.1.1l.3.2h1l.7.2H23l.6.2h8.8a.1.1,0,0,0,.1-.1h3.3l.6-.2a.1.1,0,0,0,.1-.1l.6-.2h.2l.5-.2c0-.1.1-.1.2-.1l.6-.3.4-.3a.1.1,0,0,0,.1-.1h0l.3-.2c.1,0,.1,0,.1-.1h.1c.1-.1.2-.1.2-.2H40l.2-.2h.2a.3.3,0,0,1,.1-.2h0l.2-.2h.1a.1.1,0,0,0,.1-.1H41a.3.3,0,0,0,.1-.2h0a.1.1,0,0,0,.1-.1l.2-.2h0c0-.1,0-.1.1-.2h.2c0-.1.1-.1.1-.2h.1v-.2H42c0-.1.1-.1.1-.2h0a.3.3,0,0,1,.1-.2h0v-.2h0v-.2h0c.1-2-1.2-4-3.8-5.5-5.1-2.9-13.2-2.9-18.3,0-2.5,1.4-3.7,3.4-3.7,5.3h0Z" transform="translate(-5.8 -3.5)" fill="#ffce44"/>
          <path d="M18.4,36.2h0c.1.1.1.1.1.2h0v.2h.1v.2h.1v.2a.1.1,0,0,1,.1.1c0,.1,0,.1.1.2H19V38a.1.1,0,0,1,.1.1v.2a.1.1,0,0,1,.1.1c.1.1.1.1.1.2h.3c0,.1.1.1.1.2a.1.1,0,0,1,.1.1l.2.2c.1,0,.1,0,.1.1h.4c0,.1.1.1.2.2a.1.1,0,0,0,.1.1c.1.1.2.1.2.2h.2l.4.3.4.2h1.2l.6.2H24l.5.2h1.1c0,.1.1.1.2.1h9.1l.4-.2h.1L36,41h.1l.4-.2h.2l.5-.3.4-.3h.1c.1-.1.2-.1.2-.2s.1,0,.1-.1h.1l.2-.2h0c.1,0,.1,0,.1-.1h.2a.1.1,0,0,1,.1-.1h0l.2-.2H39c0-.1.1-.1.1-.2h.3c0-.1,0-.1.1-.2h.1c0-.1.1-.1.1-.2a.1.1,0,0,1,.1-.1h0c0-.1,0-.1.1-.1v-.2a.1.1,0,0,0,.1-.1h0c0-.1.1-.1.1-.2h0c0-.1.1-.1.1-.2h0c0-.1.1-.1.1-.2h0v-.2h.1v-.2h0c0-1.7-1-3.4-3.3-4.7a17,17,0,0,0-15.5,0c-2.1,1.2-3.2,2.8-3.2,4.5h0Z" transform="translate(-5.8 -3.5)" fill="#ffce44"/>
          <path d="M42.3,36.1h0v.2h0v.2h0a.3.3,0,0,0-.1.2h0c0,.1-.1.1-.1.2h-.1v.2h-.1c0,.1-.1.1-.1.2h-.2c-.1.1-.1.1-.1.2h0l-.2.2a.1.1,0,0,1-.1.1h0a.3.3,0,0,1-.1.2h-.1a.1.1,0,0,1-.1.1h-.1l-.2.2h0a.3.3,0,0,0-.1.2h-.2l-.2.2h-.2c0,.1-.1.1-.2.2h-.1c0,.1,0,.1-.1.1l-.3.2h0a.1.1,0,0,1-.1.1l-.4.3-.6.3c-.1,0-.2,0-.2.1l-.5.2h-.2l-.6.2a.1.1,0,0,1-.1.1l-.6.2H32.5a.1.1,0,0,1-.1.1H23.6l-.6-.2h-.1l-.7-.2h-1l-.3-.2a.1.1,0,0,1-.1-.1l-.5-.2-.5-.3h-.1l-.3-.2h-.2c0-.1-.1-.1-.2-.2h-.2c0-.1-.1-.1-.2-.2a.1.1,0,0,0-.1-.1l-.2-.2-.2-.2H18l-.2-.2c0-.1-.1-.1-.1-.2h-.1l-.2-.2c0-.1,0-.1-.1-.2a.3.3,0,0,0-.1-.2h-.1c0-.1,0-.1-.1-.2s0-.1-.1-.2v-.2a.1.1,0,0,1-.1-.1c0-.1-.1-.1-.1-.2v-.2a.3.3,0,0,1-.1-.2h0c0-.1,0-.2-.1-.2V36h0v1.8c0,1.9,1.2,3.9,3.8,5.3l.5.3h.6l.3.2h.5l.7.2H23l.6.2H35.7c.1,0,.1,0,.1-.1l.6-.2h.1l.6-.3h.2l.5-.3H38l.6-.4a.1.1,0,0,0,.1-.1h.2l.2-.2h.2l.2-.2h.2l.2-.2h.2c0-.1.1-.1.2-.2h.2l.3-.2a.1.1,0,0,1,.1-.1c0-.1.1-.2.2-.3h0c.1-.1.2-.2.2-.3h.1c0-.1.1-.2.2-.3h0a.1.1,0,0,1,.1-.1h0c0-.1.1-.1.1-.2a.3.3,0,0,0,.1-.2.1.1,0,0,1,.1-.1h0c.1-.1.1-.1.1-.2v-.2c.1,0,.1-.1.1-.2h0c0-.1,0-.2.1-.2v-.6h0V36.1Z" transform="translate(-5.8 -3.5)" fill="url(#radial-gradient)"/>
        </g>
        <path d="M30.8,37.9h0c1.5-.8.6-1.8-.3-2.6l2.1-1.2a3.3,3.3,0,0,1,1.1,1.3l1.4-.4a3.3,3.3,0,0,0-1.4-1.5l1.1-.7h-.2l-.6-.4-1.2.7a4.8,4.8,0,0,0-4.5-.2c-1.4.9-.5,1.8.3,2.6l-2,1.2A3.1,3.1,0,0,1,25.3,35l-1.5.3a3.3,3.3,0,0,0,1.7,1.9l-1.2.7.9.5,1.1-.7A4.8,4.8,0,0,0,30.8,37.9Zm-1.1-4.3a2.3,2.3,0,0,1,2,0l-1.8,1.1C29.4,34.2,29.2,33.9,29.7,33.6ZM29.3,36c.4.5.6.9.1,1.2a2.8,2.8,0,0,1-2-.1Z" transform="translate(-5.8 -3.5)" fill="url(#radial-gradient-2)"/>
      </g>
      <g>
        <g>
          <path d="M16.5,32.2v.4c.1,0,.1.1.1.2h0c0,.1.1.1.1.2v.2a.3.3,0,0,1,.1.2.1.1,0,0,0,.1.1v.2c.1.1.1.1.1.2s.1.1.1.2h.1a.3.3,0,0,1,.1.2c.1.1.1.1.1.2l.2.2h.1c0,.1.1.1.1.2H18a.3.3,0,0,0,.1.2l.2.2h.2c0,.1.1.1.1.2a.2.2,0,0,1,.2.2H19a.2.2,0,0,1,.2.2c.1,0,.2,0,.2.1l.3.2a.1.1,0,0,1,.1.1l.5.3.5.2h.1l.3.2h.2l.3.2h.5l.7.2a.1.1,0,0,1,.1.1H35.8l.6-.2h.1l.6-.2h.2l.5-.2c0-.1.1-.1.2-.1l.6-.3.4-.3h.1l.3-.2c.1,0,.1,0,.1-.1h.1c.1-.1.2-.1.2-.2H40c.1-.1.1-.2.2-.2a.1.1,0,0,1,.1-.1h.2l.2-.2H41c0-.1.1-.1.1-.2h0a.1.1,0,0,0,.1-.1l.2-.2h0c0-.1,0-.1.1-.2h.2c0-.1.1-.1.1-.2H42c0-.1.1-.1.1-.2h.1v-.2h0v-.2h0c.1-2-1.2-4-3.8-5.5-5.1-2.9-13.2-2.9-18.3,0-2.5,1.4-3.7,3.3-3.7,5.2v.4Z" transform="translate(-5.8 -3.5)" fill="#ffce44"/>
          <path d="M18.4,32.2h0c.1.1.1.1.1.2h0v.2h.1v.2h.1v.2a.1.1,0,0,1,.1.1c0,.1,0,.1.1.2H19V34a.1.1,0,0,1,.1.1v.2a.1.1,0,0,1,.1.1h.1l.2.2h.1c0,.1.1.1.1.2a.1.1,0,0,1,.1.1h.2c.1.1.1.1.1.2h.4c0,.1.1.1.2.2h.5l.4.3.4.2h.4a.1.1,0,0,1,.1.1h.7l.6.3H24l.5.2h8.7c0-.1.1-.1.2-.1h1.3c0-.1.1-.1.2-.1l.4-.2h.1L36,37h.1l.4-.2h.2l.5-.2.4-.3h.1l.2-.2c.1,0,.1,0,.1-.1h.1l.2-.2h0a.1.1,0,0,0,.1-.1h.2a.1.1,0,0,1,.1-.1h0l.2-.2H39c0-.1.1-.1.1-.2h.5c0-.1.1-.1.1-.2a.1.1,0,0,1,.1-.1h0c0-.1,0-.1.1-.2h.2v-.2h0a.3.3,0,0,1,.1-.2h.1c0-1.6-1-3.3-3.3-4.6a17,17,0,0,0-15.5,0c-2.1,1.2-3.2,2.8-3.2,4.5h0Z" transform="translate(-5.8 -3.5)" fill="#ffce44"/>
          <path d="M42.3,32.1h0v.2h0v.2h-.1c0,.1-.1.1-.1.2h-.2c0,.1-.1.1-.1.2h-.2c-.1.1-.1.1-.1.2h0l-.2.2a.1.1,0,0,1-.1.1h0c0,.1-.1.1-.1.2h-.3l-.2.2h-.2a.1.1,0,0,0-.1.1c-.1,0-.1.1-.2.2h-.2c0,.1-.1.1-.2.2h-.1c0,.1,0,.1-.1.1l-.3.2H39l-.4.3-.6.3c-.1,0-.2,0-.2.1l-.5.2h-.2l-.6.2h-.1l-.6.2H23a.1.1,0,0,0-.1-.1l-.7-.2h-.5l-.3-.2h-.2l-.3-.2h-.1l-.5-.2-.5-.3a.1.1,0,0,0-.1-.1l-.3-.2c0-.1-.1-.1-.2-.1a.2.2,0,0,0-.2-.2h-.2a.2.2,0,0,0-.2-.2c0-.1-.1-.1-.1-.2h-.2l-.2-.2a.3.3,0,0,1-.1-.2h-.2c0-.1-.1-.1-.1-.2h-.1l-.2-.2c0-.1,0-.1-.1-.2a.3.3,0,0,0-.1-.2h-.1c0-.1,0-.2-.1-.2s0-.1-.1-.2v-.2a.1.1,0,0,1-.1-.1.3.3,0,0,0-.1-.2v-.2c0-.1-.1-.1-.1-.2h0c0-.1,0-.2-.1-.2v-.8h0v1.8c0,1.9,1.2,3.9,3.8,5.3l.5.3h1.4l.7.3H23l.6.2h4c.1,0,.2,0,.2.1h7.9a.1.1,0,0,0,.1-.1l.6-.2h.1l.6-.3h.2l.5-.3H38l.6-.3a.1.1,0,0,0,.1-.1h.6c.1-.1.1-.2.2-.2h.2c.1-.1.1-.2.2-.2l.2-.2h.4l.3-.3h.1c0-.1.1-.2.2-.3h0c.1-.1.2-.2.2-.3h.1c0-.1.1-.2.2-.3h0a.1.1,0,0,1,.1-.1h0c0-.1.1-.1.1-.2s.1-.1.1-.2a.3.3,0,0,1,.1-.2h0a.3.3,0,0,0,.1-.2v-.2c.1,0,.1-.1.1-.2h0c0-.1,0-.2.1-.2v-.6h0V32.1Z" transform="translate(-5.8 -3.5)" fill="url(#radial-gradient-3)"/>
        </g>
        <path d="M30.8,33.9h0c1.5-.9.6-1.8-.3-2.6l2.1-1.2a2.8,2.8,0,0,1,1.1,1.3l1.4-.4a4,4,0,0,0-1.4-1.6l1.1-.6-.2-.2-.6-.3-1.2.7a4.8,4.8,0,0,0-4.5-.2c-1.4.9-.5,1.8.3,2.6l-2,1.2a2.9,2.9,0,0,1-1.3-1.7l-1.5.4a3.3,3.3,0,0,0,1.7,1.9l-1.2.7.9.5,1.1-.7A4.8,4.8,0,0,0,30.8,33.9Zm-1.1-4.3a2.3,2.3,0,0,1,2,0l-1.8,1.1C29.4,30.2,29.2,29.8,29.7,29.6ZM29.3,32c.4.5.6.9.1,1.2a2.8,2.8,0,0,1-2-.1Z" transform="translate(-5.8 -3.5)" fill="url(#radial-gradient-4)"/>
      </g>
      <g>
        <g>
          <path d="M16.5,28.2v.4h.1v.2c0,.1.1.1.1.2v.2a.3.3,0,0,1,.1.2.1.1,0,0,0,.1.1v.2c.1.1.1.1.1.2s.1.1.1.2a.1.1,0,0,1,.1.1c.1.1.1.1.1.2v.2h.2c0,.1.1.1.1.2s.1.1.1.2H18c0,.1.1.1.1.2h.2c.1.1.1.2.2.2s.1.1.1.2h.2l.2.2a.2.2,0,0,1,.2.2c.1,0,.2,0,.2.1l.3.2a.1.1,0,0,1,.1.1l.5.2.5.3a.1.1,0,0,1,.1.1h.5l.3.2H22c0,.1.1.1.2.2l.7.2H23l.6.2H35.8l.6-.2a.1.1,0,0,1,.1-.1l.6-.2h.2l.5-.2c0-.1.1-.1.2-.1l.6-.4.4-.2a.1.1,0,0,1,.1-.1h0l.3-.2a.1.1,0,0,0,.1-.1h.1l.2-.2h.1a.1.1,0,0,0,.1-.1h.2a.1.1,0,0,1,.1-.1h.2l.2-.2v-.2h.1a.1.1,0,0,1,.1-.1c0-.1.1-.1.1-.2h0a.1.1,0,0,0,.1-.1c.1-.1.1-.2.2-.2h0v-.4h.1c0-.1.1-.1.1-.2h.1v-.2H42c0-.1.1-.1.1-.2h0a.3.3,0,0,0,.1-.2h0c0-.1,0-.2.1-.2h0v-.2h0c.1-2-1.2-4-3.8-5.5-5.1-3-13.2-3-18.3,0-2.5,1.4-3.7,3.3-3.7,5.2v.4Z" transform="translate(-5.8 -3.5)" fill="#ffce44"/>
          <path d="M18.4,28.1v.2c.1.1.1.1.1.2h0v.2h.1v.2h.1v.2a.1.1,0,0,1,.1.1c0,.1,0,.1.1.2a.1.1,0,0,0,.1.1V30a.1.1,0,0,1,.1.1h.1v.2a.1.1,0,0,1,.1.1l.2.2a.1.1,0,0,0,.1.1c0,.1.1.1.1.2s.1,0,.1.1h.2v.2h.4l.2.2h.5l.4.3.4.2h.1l.3.2a.1.1,0,0,1,.1.1h.5c0,.1.1.1.2.1l.6.2c0,.1,0,.1.1.1H34.9l.4-.2h.1L36,33a.1.1,0,0,1,.1-.1l.4-.2h.2l.5-.2.4-.3h.5c0-.1.1-.1.2-.2h.6A.1.1,0,0,1,39,31c0-.1.1-.1.1-.2h.1l.2-.2h0a.1.1,0,0,1,.1-.1h.2a.1.1,0,0,1,.1-.1h0c0-.1,0-.1.1-.2h.5c0-1.7-1-3.4-3.3-4.6a17,17,0,0,0-15.5,0c-2.1,1.2-3.2,2.8-3.2,4.4V28Z" transform="translate(-5.8 -3.5)" fill="#ffce44"/>
          <path d="M42.3,28.1h0v.2h0c-.1,0-.1.1-.1.2h0a.3.3,0,0,1-.1.2h0c0,.1-.1.1-.1.2h-.1v.2h-.1c0,.1-.1.1-.1.2h-.1v.4h0c-.1,0-.1.1-.2.2a.1.1,0,0,1-.1.1h0c0,.1-.1.1-.1.2a.1.1,0,0,0-.1.1h-.1v.2l-.2.2h-.2a.1.1,0,0,0-.1.1H40a.1.1,0,0,1-.1.1h-.1l-.2.2h-.1a.1.1,0,0,1-.1.1l-.3.2h0a.1.1,0,0,0-.1.1l-.4.2-.6.4c-.1,0-.2,0-.2.1l-.5.2h-.2l-.6.2a.1.1,0,0,0-.1.1l-.6.2H23.6l-.6-.2h-.1l-.7-.2c-.1-.1-.2-.1-.2-.2h-.3l-.3-.2h-.5a.1.1,0,0,0-.1-.1l-.5-.3-.5-.2a.1.1,0,0,0-.1-.1l-.3-.2c0-.1-.1-.1-.2-.1a.2.2,0,0,0-.2-.2l-.2-.2h-.2c0-.1-.1-.1-.1-.2s-.1-.1-.2-.2h-.2c0-.1-.1-.1-.1-.2h-.2c0-.1-.1-.1-.1-.2s-.1-.1-.1-.2h-.2v-.2c0-.1,0-.1-.1-.2a.1.1,0,0,0-.1-.1c0-.1,0-.2-.1-.2s0-.1-.1-.2v-.2a.1.1,0,0,1-.1-.1.3.3,0,0,0-.1-.2v-.2c0-.1-.1-.1-.1-.2v-.2h-.1v-.8h0v1.8c0,1.9,1.2,3.8,3.8,5.3l.5.3h.1l.3.2h1l.7.3H23l.6.2h.1c.1,0,.1,0,.1.1H35.6a.1.1,0,0,0,.1-.1h.1l.6-.2h.1l.6-.3h.2l.5-.2H38l.6-.3h.5l.2-.2h.2l.2-.2h.2l.2-.2h.4l.3-.3h.1c0-.1.1-.2.2-.3h0a.2.2,0,0,0,.2-.2h.1c0-.1.1-.2.2-.3h0c0-.1,0-.1.1-.1h0v-.2c0-.1.1-.1.1-.2a.3.3,0,0,1,.1-.2h0a.3.3,0,0,0,.1-.2v-.4h0v-.2h0v-.4h0V28.1Z" transform="translate(-5.8 -3.5)" fill="url(#radial-gradient-5)"/>
        </g>
        <path d="M30.8,29.9h0c1.5-.9.6-1.8-.3-2.6l2.1-1.2a2.8,2.8,0,0,1,1.1,1.3l1.4-.4a4,4,0,0,0-1.4-1.6l1.1-.6-.2-.2-.6-.3-1.2.7a4.8,4.8,0,0,0-4.5-.2c-1.4.8-.5,1.8.3,2.6l-2,1.2a2.9,2.9,0,0,1-1.3-1.7l-1.5.4a3.6,3.6,0,0,0,1.7,1.9l-1.2.7.9.5,1.1-.7A5.1,5.1,0,0,0,30.8,29.9Zm-1.1-4.4a2.4,2.4,0,0,1,2,.1l-1.8,1.1C29.4,26.2,29.2,25.8,29.7,25.5ZM29.3,28c.4.5.6.9.1,1.1a2.3,2.3,0,0,1-2,0Z" transform="translate(-5.8 -3.5)" fill="url(#radial-gradient-6)"/>
      </g>
      <g>
        <g>
          <path d="M16.5,24.2v.2h0v.4c0,.1.1.1.1.2v.2h.1c0,.1,0,.2.1.2v.2c.1,0,.1.1.1.2a.1.1,0,0,1,.1.1c.1.1.1.1.1.2s.1.1.1.2a.1.1,0,0,1,.1.1l.2.2c0,.1.1.1.1.2v.2H18c0,.1.1.1.1.2h.2c.1.1.1.2.2.2s.1.1.1.2h.2c.1.1.2.1.2.2h.2c.1.1.2.1.2.2h.3a.1.1,0,0,0,.1.1l.5.3.5.3a.1.1,0,0,1,.1.1H22c0,.1.1.1.2.1l.7.3H23l.6.2H35.8l.6-.2h.1l.6-.3h.2l.5-.3H38l.6-.4.4-.2h.1l.3-.2h.1a.1.1,0,0,0,.1-.1h.6c0-.1,0-.1.1-.1h.1v-.2h.2c0-.1.1-.1.1-.2h.1a.1.1,0,0,1,.1-.1c0-.1.1-.1.1-.2h0v-.2h.3c0-.1.1-.1.1-.2h.1V26h.1v-.2c.1,0,.1,0,.1-.1h0a.3.3,0,0,1,.1-.2h0a.3.3,0,0,0,.1-.2h0c0-.1,0-.2.1-.2h0v-.2h0c.1-1.9-1.2-3.9-3.8-5.4-5.1-3-13.2-3-18.3,0-2.5,1.4-3.7,3.3-3.7,5.2v.4Z" transform="translate(-5.8 -3.5)" fill="#ffce44"/>
          <path d="M18.4,24.1v.2h.1v.2h0c0,.1.1.1.1.2h0c0,.1.1.1.1.2h0c.1.1.1.1.1.2a.1.1,0,0,0,.1.1v.2h0c.1.1.1.1.1.2h.1v.2a.1.1,0,0,1,.1.1l.2.2a.1.1,0,0,0,.1.1h.1c.1.1.1.1.1.2h.3c.1.1.2.1.2.2h.2l.2.2h.5l.4.2.4.3h.1l.3.2h.1l.3.2h.2c0,.1.1.1.2.1l.6.2h11l.4-.2h.1l.6-.3h.1l.4-.2h.2l.5-.3.4-.2h.5c0-.1.1-.1.2-.2h.1l.2-.2h.3A.1.1,0,0,1,39,27c0-.1.1-.1.1-.2h.1l.2-.2h0a.1.1,0,0,1,.1-.1c0-.1.1-.1.1-.2h.1a.1.1,0,0,1,.1-.1h.6c0-1.7-1-3.4-3.3-4.7a17.6,17.6,0,0,0-15.5,0c-2.1,1.3-3.2,2.9-3.2,4.5V24Z" transform="translate(-5.8 -3.5)" fill="#e0840b"/>
          <path d="M42.3,24h0v.2h0c-.1,0-.1.1-.1.2h0a.3.3,0,0,1-.1.2h0a.3.3,0,0,0-.1.2h0c0,.1,0,.1-.1.1v.2h-.1v.2h-.1c0,.1-.1.1-.1.2h-.3V27h0c0,.1-.1.1-.1.2a.1.1,0,0,0-.1.1h-.1c0,.1-.1.1-.1.2h-.2v.2h-.1c-.1,0-.1,0-.1.1h-.6a.1.1,0,0,1-.1.1h-.1l-.3.2H39l-.4.2-.6.4h-.2l-.5.3h-.2l-.6.3h-.1l-.6.2H23.6l-.6-.2h-.1l-.7-.3c-.1,0-.2,0-.2-.1H20.9a.1.1,0,0,0-.1-.1l-.5-.3-.5-.3a.1.1,0,0,1-.1-.1h-.3c0-.1-.1-.1-.2-.2H19c0-.1-.1-.1-.2-.2h-.2c0-.1-.1-.1-.1-.2s-.1-.1-.2-.2h-.2c0-.1-.1-.1-.1-.2h-.2V27c0-.1-.1-.1-.1-.2l-.2-.2a.1.1,0,0,0-.1-.1c0-.1,0-.1-.1-.2s0-.1-.1-.2A.1.1,0,0,0,17,26c0-.1,0-.2-.1-.2v-.2c-.1,0-.1-.1-.1-.2h-.1v-.2c0-.1-.1-.1-.1-.2v-.4h0v-.6h0v1.8c0,1.9,1.2,3.8,3.8,5.3l.5.2h.1l.3.2c.1,0,.2,0,.2.1h.8l.7.3H23l.6.2h.2l.4.2H27a.1.1,0,0,0,.1.1h8.5a.1.1,0,0,0,.1-.1h.1l.6-.2h.1l.6-.3h.2l.5-.2H38l.6-.3h.5l.2-.2h.2l.2-.2h.2l.2-.2h.4l.3-.3h.1c0-.1.1-.2.2-.3h0c.1-.1.2-.1.2-.2h.1l.2-.3h0c0-.1,0-.1.1-.1h0v-.2c0-.1.1-.1.1-.2s0-.1.1-.2h0a.1.1,0,0,0,.1-.1v-.4h0v-.2h0v-.4h0V23.9Z" transform="translate(-5.8 -3.5)" fill="url(#radial-gradient-7)"/>
        </g>
        <path d="M30.8,25.8h0c1.5-.8.6-1.7-.3-2.5l2.1-1.2a2.5,2.5,0,0,1,1.1,1.2l1.4-.3a4,4,0,0,0-1.4-1.6l1.1-.6-.2-.2-.6-.3-1.2.6a5.1,5.1,0,0,0-4.5-.1c-1.4.8-.5,1.7.3,2.6l-2,1.2a3.2,3.2,0,0,1-1.3-1.7l-1.5.4a3.6,3.6,0,0,0,1.7,1.9l-1.2.7.9.5,1.1-.7C28.1,26.5,29.8,26.5,30.8,25.8Zm-1.1-4.3a2.4,2.4,0,0,1,2,.1l-1.8,1C29.4,22.2,29.2,21.8,29.7,21.5ZM29.3,24c.4.4.6.8.1,1.1a2,2,0,0,1-2-.1Z" transform="translate(-5.8 -3.5)" fill="#ffce44"/>
      </g>
    </g>
  </g>
</svg>
