<svg id="ach_3modules" xmlns="http://www.w3.org/2000/svg" xmlns:xlink="http://www.w3.org/1999/xlink" width="48.2" height="54.1" viewBox="0 0 48.2 54.1">
  <defs>
    <linearGradient id="linear-gradient" x1="8.98" y1="30.5" x2="51.23" y2="30.5" gradientUnits="userSpaceOnUse">
      <stop offset="0" stop-color="#fff"/>
      <stop offset="0.18" stop-color="#f9fbfe"/>
      <stop offset="0.42" stop-color="#e7f1fc"/>
      <stop offset="0.71" stop-color="#c9e0f9"/>
      <stop offset="1" stop-color="#a4cbf5"/>
    </linearGradient>
    <linearGradient id="linear-gradient-2" x1="18.09" y1="34.2" x2="39.24" y2="34.2" xlink:href="#linear-gradient"/>
    <linearGradient id="linear-gradient-3" x1="24.72" y1="32.75" x2="28.7" y2="32.75" xlink:href="#linear-gradient"/>
    <linearGradient id="linear-gradient-4" x1="22.96" y1="37.29" x2="28.97" y2="37.29" xlink:href="#linear-gradient"/>
    <linearGradient id="linear-gradient-5" x1="27.93" y1="38.18" x2="34.84" y2="38.18" xlink:href="#linear-gradient"/>
    <linearGradient id="linear-gradient-6" x1="22.96" y1="30.41" x2="34.54" y2="30.41" xlink:href="#linear-gradient"/>
    <linearGradient id="linear-gradient-7" x1="22.96" y1="35.13" x2="31.09" y2="35.13" xlink:href="#linear-gradient"/>
  </defs>
  <g>
    <g>
      <path d="M28.3,3.9,7.8,15.7A3.5,3.5,0,0,0,6,18.8V41.5a3.5,3.5,0,0,0,1.7,3L28.1,57a3.8,3.8,0,0,0,3.7.1L52.4,45.3a3.5,3.5,0,0,0,1.8-3.1V18.6a3.7,3.7,0,0,0-1.8-3.1L31.9,3.9A3.8,3.8,0,0,0,28.3,3.9Z" transform="translate(-6 -3.5)" fill="#fff"/>
      <path d="M28.6,7.2l-18,10.3A3.2,3.2,0,0,0,9,20.2V40.1a3.1,3.1,0,0,0,1.5,2.7L28.4,53.7a3.1,3.1,0,0,0,3.2.1L49.7,43.5a3.2,3.2,0,0,0,1.5-2.7V20.1a3,3,0,0,0-1.6-2.7L31.7,7.2A3.4,3.4,0,0,0,28.6,7.2Z" transform="translate(-6 -3.5)" fill="url(#linear-gradient)"/>
    </g>
    <g>
      <g>
        <path d="M15.4,14.1h0l2.8-1.6c.1-.1.3,0,.6.1l1,.8c0,.1,5,3.8,10.5,2.9h.3a2.2,2.2,0,0,1,1.7.9h0a.8.8,0,0,1,.4.4C38,24,43,25.6,43.2,25.7l1,.3a1,1,0,0,1,.7.9V28c-.3,14.1-4.6,19.6-8.1,21.7h0l-3.3,1.8-.3-.6H32a1.4,1.4,0,0,1-1-.6h0c-.5-.4-10.3-10.2-12.5-30l-1.5-3Z" transform="translate(-6 -3.5)" fill="#09285a"/>
        <path d="M33.1,51.2H32a2.3,2.3,0,0,1-1.2-.6c-.4-.4-10.3-10.3-12.5-30.2l-1.5-2.9-1.6-3.4h0a.4.4,0,0,1,.1-.3l2.8-1.5c.2-.2.5-.2.8.1l1,.8c.2.1,5,3.7,10.4,2.8h.4a3.1,3.1,0,0,1,1.8.9l.4.5c5.2,6.5,10.2,8,10.4,8.1l1,.3a1.2,1.2,0,0,1,.8,1.1V28c-.2,14.2-4.6,19.7-8.2,21.9l-3.6,2ZM30.3,16.4c-5.5.9-10.5-2.8-10.7-2.9l-1-.8h-.2l-2.7,1.5,1.5,3.2,1.5,3h0c2.2,19.8,12,29.6,12.4,30a1.6,1.6,0,0,0,.9.5h1.4l.2.5,3.1-1.7c3.5-2.1,7.7-7.5,8-21.5V26.9a.9.9,0,0,0-.5-.7l-1.1-.3c-.2-.1-5.3-1.7-10.6-8.3l-.3-.4a2.4,2.4,0,0,0-1.6-.8h-.3Z" transform="translate(-6 -3.5)" fill="#150035"/>
      </g>
      <g>
        <path d="M18.2,12.4c.1-.1.3,0,.6.1l1,.8c0,.1,5,3.8,10.5,2.9h.3a2.2,2.2,0,0,1,1.7.9h0a.8.8,0,0,1,.4.4C38,24,43,25.6,43.2,25.7l1,.3a.7.7,0,0,1,.5.4l-8.3,4.3L19,23.9c-.2-1.1-.4-2.3-.5-3.5l-1.5-3-1.6-3.3h0Z" transform="translate(-6 -3.5)" fill="#fff"/>
        <path d="M18.8,24.1h0c-.2-1.2-.4-2.4-.5-3.6l-1.5-2.9-1.6-3.4a.4.4,0,0,1,.1-.3l2.8-1.5c.2-.2.5-.2.8.1l1,.8c.2.1,5,3.7,10.4,2.8h.4a3.1,3.1,0,0,1,1.8.9l.4.5c5.2,6.5,10.2,8,10.4,8.1l1,.3a.7.7,0,0,1,.6.5H45l-8.5,4.5Zm25.4,2.1-1.1-.3c-.2-.1-5.3-1.7-10.6-8.3l-.3-.4a2.4,2.4,0,0,0-1.6-.8h-.3c-5.5.9-10.5-2.8-10.7-2.9l-1-.8h-.2l-2.7,1.5,1.5,3.2,1.5,3h0c.2,1.2.3,2.4.5,3.5l17.2,6.6,8-4.1Z" transform="translate(-6 -3.5)" fill="#09285a"/>
      </g>
      <g>
        <path d="M28.1,52c-.5-.5-12.4-12.4-12.8-36.6V14.3c0-.3.3-.5.6-.2l1,.8c.1,0,5.1,3.8,10.6,2.9.1,0,.2-.1.3,0h0a2.2,2.2,0,0,1,1.7.9h0c.1.1.3.2.4.4,5.3,6.5,10.3,8.1,10.5,8.2l1,.3a1,1,0,0,1,.7.9v1.1c-.5,23.7-12.4,23-12.9,23h0L28.1,52ZM38.7,29.4a31,31,0,0,1-9.6-7.9,1.2,1.2,0,0,0-.9-.4,17.1,17.1,0,0,1-9.6-2.3c-.3-.1-.5,0-.5.3.8,16.3,7,25.9,9.8,29.3.5.6,1.3,1.3,1.7,1.2,2.8-.5,8.8-3.9,9.6-19.3C39.3,30,39,29.6,38.7,29.4Z" transform="translate(-6 -3.5)" fill="#a0b1d8"/>
        <path d="M29.2,52.8a3.4,3.4,0,0,1-1.2-.6h0c-.5-.5-12.5-12.5-13-36.7V14.3a.5.5,0,0,1,.3-.5.8.8,0,0,1,.8.2l1,.7c.2.2,5,3.8,10.3,2.9h.4a3.5,3.5,0,0,1,1.9,1c.1.1.2.3.4.4,5.2,6.5,10.2,8.1,10.4,8.2l1,.3a1.2,1.2,0,0,1,.8,1.1v1.1c-.2,12.8-3.9,18.4-6.9,20.9a9.3,9.3,0,0,1-5.9,2.3ZM27.5,18c-5.5.9-10.5-2.8-10.7-2.9l-1-.8h-.3v1.1c.4,24.2,12.3,36,12.8,36.5h0a2,2,0,0,0,.9.5,9,9,0,0,0,5.9-2.2c3-2.4,6.5-8,6.7-20.6V28.5a.6.6,0,0,0-.5-.7l-1-.3c-.2-.1-5.3-1.7-10.6-8.3a.8.8,0,0,0-.4-.4,2.2,2.2,0,0,0-1.5-.8h-.3Zm.2,30.6c-2.7-3.4-9-13-9.8-29.5a.4.4,0,0,1,.2-.5.6.6,0,0,1,.6,0,16.4,16.4,0,0,0,9.5,2.3c.3-.1.7.1,1.1.5a31.7,31.7,0,0,0,9.5,7.9,1.1,1.1,0,0,1,.7,1h0c-.9,16.4-7.7,19.1-9.8,19.5a.1.1,0,0,1-.1.1C28.9,49.9,28.1,49,27.7,48.6ZM39,30.3a.8.8,0,0,0-.4-.7,33.1,33.1,0,0,1-9.7-7.9.9.9,0,0,0-.7-.4A16.8,16.8,0,0,1,18.5,19h-.2c.8,16.3,7.1,25.9,9.8,29.2.5.6,1.2,1.2,1.5,1.1,2-.4,8.6-3,9.4-19.1Z" transform="translate(-6 -3.5)" fill="#09285a"/>
      </g>
      <path d="M18.6,18.8a17.1,17.1,0,0,0,9.6,2.3,1.2,1.2,0,0,1,.9.4,31,31,0,0,0,9.6,7.9c.3.2.6.6.5.9-.8,15.4-6.8,18.8-9.6,19.3-.4.1-1.2-.6-1.7-1.2-2.8-3.4-9-13-9.8-29.3C18.1,18.8,18.3,18.7,18.6,18.8Z" transform="translate(-6 -3.5)" fill="url(#linear-gradient-2)"/>
      <g>
        <path d="M18.6,18.8l1.3.7c1,15.9,7.1,25.2,9.8,28.6A3.5,3.5,0,0,0,31,49.2a4.3,4.3,0,0,1-1.4.4c-.4.1-1.2-.6-1.7-1.2-2.8-3.4-9-13-9.8-29.3C18.1,18.8,18.3,18.7,18.6,18.8Z" transform="translate(-6 -3.5)" fill="#150035"/>
        <path d="M27.7,48.6c-2.7-3.4-9-13-9.8-29.5a.4.4,0,0,1,.2-.5.6.6,0,0,1,.6,0h0l1.3.7h.2c.9,15.9,7.1,25.2,9.7,28.5a3.8,3.8,0,0,0,1.2,1l.4.2-.4.2a4.3,4.3,0,0,1-1.4.4.1.1,0,0,1-.1.1C28.9,49.9,28.1,49,27.7,48.6Zm1.8-.4c-2.6-3.2-8.8-12.6-9.8-28.6L18.5,19h-.2c.8,16.3,7.1,25.9,9.8,29.2.5.6,1.2,1.2,1.5,1.1l.9-.2Z" transform="translate(-6 -3.5)" fill="none"/>
      </g>
      <polygon points="35.9 24.6 38.8 23.1 38.6 22.7 35.7 24.2 35.9 24.6" fill="#150035"/>
      <polygon points="34.2 23.8 37.1 22.3 36.8 22 34 23.5 34.2 23.8" fill="#09285a"/>
      <polygon points="22.3 14.5 25.2 13 25 12.6 22.1 14.1 22.3 14.5" fill="#09285a"/>
      <polygon points="10.8 11.6 13.9 9.9 13.6 9.6 10.6 11.2 10.8 11.6" fill="#09285a"/>
      <polygon points="18.9 14.5 21.8 13 21.6 12.6 18 14.5 18.9 14.5" fill="#09285a"/>
      <path d="M27.7,48.6c-2.7-3.4-9-13-9.8-29.5a.4.4,0,0,1,.2-.5.6.6,0,0,1,.6,0h0a16.4,16.4,0,0,0,9.5,2.3c.3-.1.7.1,1.1.5a31.7,31.7,0,0,0,9.5,7.9,1.1,1.1,0,0,1,.7,1c-.9,16.4-7.7,19.1-9.8,19.5a.1.1,0,0,1-.1.1C28.9,49.9,28.1,49,27.7,48.6Zm.5-27.3A16.8,16.8,0,0,1,18.5,19h-.2c.8,16.3,7.1,25.9,9.8,29.2.5.6,1.2,1.2,1.5,1.1,2-.4,8.6-3,9.4-19.1a.8.8,0,0,0-.4-.7,33.1,33.1,0,0,1-9.7-7.9.9.9,0,0,0-.6-.4Z" transform="translate(-6 -3.5)" fill="#09285a"/>
    </g>
    <g id="_3" data-name="3">
      <g>
        <g>
          <path d="M24.7,32.5l3.1-1.7.9,2.1L28,34.7,26.1,34l-1-.5A10.4,10.4,0,0,0,24.7,32.5Z" transform="translate(-6 -3.5)" fill="url(#linear-gradient-3)"/>
          <path d="M28,34.9l-2-.8c-1-.4-1-.5-1-.6l-.4-.9h0l3.2-1.9,1,2.3Zm-2.7-1.5c0,.1.5.3.8.5l1.8.7.7-1.7L27.7,31l-2.8,1.6A5.9,5.9,0,0,0,25.3,33.4Z" transform="translate(-6 -3.5)" fill="#09285a"/>
        </g>
        <g>
          <path d="M23,36.1l2.6-1.6,1.7,1A19.3,19.3,0,0,1,29,37.6l-.6,2.3a17.1,17.1,0,0,1-3.2.1c-.1-.2-1.6-1.6-1.6-1.6Z" transform="translate(-6 -3.5)" fill="url(#linear-gradient-4)"/>
          <path d="M25.8,40.2c-.7,0-.7-.1-.7-.2l-1.6-1.5h0l-.7-2.4h0l2.8-1.7,1.8,1.1c1.2,1.3,1.7,2,1.7,2.3s-.6,2.2-.6,2.2h-.1A15.5,15.5,0,0,1,25.8,40.2Zm-.5-.3a17,17,0,0,0,3-.1c.1-.4.5-2,.5-2.2a8.1,8.1,0,0,0-1.6-2l-1.6-.9-2.5,1.5.6,2.1A11.9,11.9,0,0,1,25.3,39.9Z" transform="translate(-6 -3.5)" fill="#09285a"/>
        </g>
        <g>
          <path d="M34.8,38.3a5.5,5.5,0,0,0-2.4-4.4,40.8,40.8,0,0,0-4.2,1.8s-.1,1.1-.3,2.3a1,1,0,0,1,.5.4l.5.3.3,1.4,1,2.4,3.7-2.1.2-.2h0A2.2,2.2,0,0,0,34.8,38.3Z" transform="translate(-6 -3.5)" fill="url(#linear-gradient-5)"/>
          <path d="M30.2,42.7l-1.1-2.6-.3-1.3h-.1l-.4-.2a1,1,0,0,0-.5-.4h0c.2-1.1.3-2.2.3-2.2h.1c2.7-1.3,4.1-1.9,4.3-1.8A5.8,5.8,0,0,1,35,38.3a2.4,2.4,0,0,1-.7,1.9h-.1l-.3.2Zm-2.1-4.8.4.4.4.2H29l.4,1.4.9,2.3,3.5-2.1h.3a2.2,2.2,0,0,0,.6-1.8A5.7,5.7,0,0,0,32.4,34a24,24,0,0,0-4,1.8A16.9,16.9,0,0,0,28.1,37.9Z" transform="translate(-6 -3.5)" fill="#09285a"/>
        </g>
        <g>
          <path d="M28.5,33l.7.4.4.2.5,1.9h0l1.1-.6,1.5-.9,1-.6h.2a2.1,2.1,0,0,0,.6-1.7,4.4,4.4,0,0,0-1-2.8,7,7,0,0,0-2.7-2.4,10.2,10.2,0,0,0-2.2-1,3.7,3.7,0,0,0-1.8,0L23,27.6l5.5,2.8Z" transform="translate(-6 -3.5)" fill="url(#linear-gradient-6)"/>
          <path d="M30.1,35.7v-.2l-.5-1.8-.4-.2-.7-.4V30.5l-5.5-2.8v-.2l3.9-2.2a3.1,3.1,0,0,1,1.9,0,8.4,8.4,0,0,1,2.2,1,7.4,7.4,0,0,1,2.8,2.4,4.8,4.8,0,0,1,1.1,2.9,2.5,2.5,0,0,1-.7,1.8h-.2Zm-1.5-2.8.7.4.4.2h0l.5,1.7,3.5-2h.1a2,2,0,0,0,.6-1.6,4.6,4.6,0,0,0-1-2.8,6.9,6.9,0,0,0-2.7-2.3,6,6,0,0,0-2.1-.9,3.7,3.7,0,0,0-1.8-.1l-3.6,2.1,5.4,2.7Z" transform="translate(-6 -3.5)" fill="#09285a"/>
        </g>
        <path d="M30.8,33.8a2.1,2.1,0,0,1-.7,1.7c-.4.4-1,.4-1.9.2h0c1.9,1.3,2.9,2.9,2.9,4.7s-.4,2-1.3,2.2a5.1,5.1,0,0,1-3.5-1,9.1,9.1,0,0,1-1.6-1.1A8.3,8.3,0,0,1,23,39V36.1a10.6,10.6,0,0,0,1.5,1.5,11,11,0,0,0,1.4,1.1,3.2,3.2,0,0,0,1.5.5c.3-.1.4-.3.4-.8a1.3,1.3,0,0,0-.2-.9,3.2,3.2,0,0,0-.8-.9,5.6,5.6,0,0,0-1.4-1l-.7-.4V32.5l.7.5c1.6.9,2.4.8,2.4-.1a1.2,1.2,0,0,0-.4-.9,2.4,2.4,0,0,0-.9-.8,3,3,0,0,0-2.2-.5L23,27.6a5.4,5.4,0,0,1,1.8,0,8.4,8.4,0,0,1,2.2,1A9.6,9.6,0,0,1,29.8,31,5.3,5.3,0,0,1,30.8,33.8Z" transform="translate(-6 -3.5)" fill="url(#linear-gradient-7)"/>
        <path d="M25.7,33.7c1.5.9,2.3.9,2.3,0a1.7,1.7,0,0,0-.3-1l-.7-.6-2,1.2Z" transform="translate(-6 -3.5)" fill="#ffce44"/>
        <path d="M24.7,38.5a11,11,0,0,0,1.4,1.1,3.2,3.2,0,0,0,1.5.5c.3,0,.4-.3.4-.8a2.9,2.9,0,0,0-.2-.9,3.2,3.2,0,0,0-.8-.9l-1.4-1-.7-.4h-.3l-1.5.9A7.5,7.5,0,0,0,24.7,38.5Z" transform="translate(-6 -3.5)" fill="#ffce44"/>
        <path d="M30.8,38.8l3.7-2.2.3,1.4v1.3l-.7,1-3.5,1.9.4-.7s.1-1.5.1-1.6Z" transform="translate(-6 -3.5)" fill="#09285a"/>
        <polygon points="23.7 33.6 27.5 31.4 26.7 30.6 24 32.1 23 32.4 22.4 32.3 23.7 33.6" fill="#09285a"/>
        <path d="M29.5,31.2,33.3,29A8.4,8.4,0,0,0,31,27.2a8.8,8.8,0,0,0-2.1-.9,4.1,4.1,0,0,0-1.9-.1l-3.8,2.3h.1a2.8,2.8,0,0,1,1.8,0l2.2,1A9.2,9.2,0,0,1,29.5,31.2Z" transform="translate(-6 -3.5)" fill="#ffce44"/>
        <path d="M30.2,32.8a.6.6,0,0,1,.1.4l3.8-2.1a2.5,2.5,0,0,0-.3-1.2L30,32.1A3.1,3.1,0,0,1,30.2,32.8Z" transform="translate(-6 -3.5)" fill="#ffce44"/>
        <path d="M29.3,42.9a6.5,6.5,0,0,1-3-1.1l-1.7-1.1a8.3,8.3,0,0,1-1.7-1.6h-.1V36h.3a10.6,10.6,0,0,0,1.5,1.5,4.1,4.1,0,0,0,1.4,1,3,3,0,0,0,1.4.6c.1-.1.3-.1.3-.7a2.9,2.9,0,0,0-.2-.9,3,3,0,0,0-.8-.8l-1.3-1-.8-.4V32.5h.1l.8.4c1.2.7,1.7.8,1.9.6s.2-.2.2-.5a1.6,1.6,0,0,0-.3-.9,2.2,2.2,0,0,0-.9-.7,3.3,3.3,0,0,0-2.1-.5h-.1l-1.4-3.4h.1a4.5,4.5,0,0,1,2,0l2.2,1a11.1,11.1,0,0,1,2.8,2.4,5.6,5.6,0,0,1,1,2.9c0,.9-.2,1.5-.7,1.8a1.9,1.9,0,0,1-1.5.3,5.9,5.9,0,0,1,2.5,4.6c0,1.3-.4,2.1-1.3,2.3ZM23.1,39l1.6,1.5,1.7,1.1c1.5.8,2.6,1.2,3.4.9s1.2-.8,1.2-2a5.8,5.8,0,0,0-2.8-4.6h-.1v-.3h.2a1.9,1.9,0,0,0,1.7-.2,1.8,1.8,0,0,0,.6-1.6,4.3,4.3,0,0,0-1-2.7,8,8,0,0,0-2.7-2.4,6,6,0,0,0-2.1-.9,3,3,0,0,0-1.6-.1l1.1,2.9a3.2,3.2,0,0,1,2.3.5,2.4,2.4,0,0,1,.9.8,1.3,1.3,0,0,1,.4,1,1,1,0,0,1-.3.8c-.4.2-1.1,0-2.2-.6l-.5-.3v2.3l.6.4a8.5,8.5,0,0,1,1.4,1,3.2,3.2,0,0,1,.8.9,1.7,1.7,0,0,1,.3,1c0,.7-.3.9-.6.9a2.5,2.5,0,0,1-1.6-.5,11,11,0,0,1-1.4-1.1l-1.3-1.2Z" transform="translate(-6 -3.5)" fill="#09285a"/>
      </g>
    </g>
  </g>
</svg>
