<svg id="ach_completed" xmlns="http://www.w3.org/2000/svg" xmlns:xlink="http://www.w3.org/1999/xlink" width="48.2" height="54.1" viewBox="0 0 48.2 54.1">
  <defs>
    <linearGradient id="linear-gradient" x1="8.88" y1="30.48" x2="51.12" y2="30.48" gradientUnits="userSpaceOnUse">
      <stop offset="0" stop-color="#fff"/>
      <stop offset="0.18" stop-color="#f9fbfe"/>
      <stop offset="0.42" stop-color="#e7f1fc"/>
      <stop offset="0.71" stop-color="#c9e0f9"/>
      <stop offset="1" stop-color="#a4cbf5"/>
    </linearGradient>
    <clipPath id="clip-path" transform="translate(-5.9 -3.4)">
      <path d="M40.3,18.1H18.9s-.2,7.2,7.6,13.3l.6.4a5.5,5.5,0,0,0,5,0h0l.6-.4C40.6,25.3,40.3,18.1,40.3,18.1Z" fill="none"/>
    </clipPath>
    <clipPath id="clip-path-2" transform="translate(-5.9 -3.4)">
      <ellipse cx="29.6" cy="18.1" rx="8.4" ry="4.9" fill="#e0840b"/>
    </clipPath>
  </defs>
  <g>
    <path d="M28.2,3.9,7.7,15.7a3.5,3.5,0,0,0-1.8,3.1V41.4a3.6,3.6,0,0,0,1.7,3.1L28,57a3.8,3.8,0,0,0,3.7.1L52.3,45.3a3.5,3.5,0,0,0,1.8-3.1V18.6a3.5,3.5,0,0,0-1.8-3.1L31.8,3.9A3.8,3.8,0,0,0,28.2,3.9Z" transform="translate(-5.9 -3.4)" fill="#fff"/>
    <path d="M28.5,7.2,10.4,17.5a3.3,3.3,0,0,0-1.5,2.7V40.1a2.8,2.8,0,0,0,1.5,2.6l17.9,11a3.1,3.1,0,0,0,3.1.1L49.5,43.5a3.2,3.2,0,0,0,1.6-2.7V20.1a2.9,2.9,0,0,0-1.6-2.7L31.6,7.2A2.9,2.9,0,0,0,28.5,7.2Z" transform="translate(-5.9 -3.4)" fill="url(#linear-gradient)"/>
    <g>
      <g>
        <path d="M40.6,45.3h0l-.7-2.1c0-.1,0-.1-.1-.1l-2.7-.4h0L30,38.5a5.7,5.7,0,0,0-5.2.2l-6,3.4s0,.1-.1,0l-1.4-.2a.1.1,0,0,0-.1.1l-.7,2a1.4,1.4,0,0,0-.2.6h0c-.1.5.2,1,.9,1.4L27,51.7a5.4,5.4,0,0,0,5.1-.2l7.3-4.2C40.4,46.7,40.9,45.9,40.6,45.3Z" transform="translate(-5.9 -3.4)" fill="#09285a"/>
        <path d="M28.9,45.1,30,38.5a5.7,5.7,0,0,0-5.2.2l-6,3.4c0,.1,0,.1-.1.1l-1.4-.3a.1.1,0,0,0-.1.1l-.6,1.7a3.2,3.2,0,0,0-.3.9h0c-.1.5.2,1,.9,1.4L27,51.7a3.7,3.7,0,0,0,1.8.5Z" transform="translate(-5.9 -3.4)" fill="#09285a"/>
        <path d="M26.9,48.9l-9-5.2c-1.2-.8-1.1-2,.4-2.9l6.8-3.9a5.3,5.3,0,0,1,4.9-.2l9.1,5.2c1.2.7,1.1,2-.4,2.9l-6.9,3.9A5.6,5.6,0,0,1,26.9,48.9Z" transform="translate(-5.9 -3.4)" fill="#a0b1d8"/>
      </g>
      <g>
        <g>
          <path d="M34.7,42.4h0l-.3-1.6h0l-1.2-.2h0l-3.1-1.8a2.7,2.7,0,0,0-2.3.1l-2.6,1.5h-.7l-.3,1.6c0,.1-.1.2-.1.3h0a.7.7,0,0,0,.4.6l4.3,2.5a2.4,2.4,0,0,0,2.2-.1l3.2-1.9C34.6,43,34.8,42.7,34.7,42.4Z" transform="translate(-5.9 -3.4)" fill="#bf6f07"/>
          <path d="M29.6,41.6l.5-2.9a2.7,2.7,0,0,0-2.3.1l-2.6,1.5h-.7l-.3,1.3c0,.1-.1.5-.1.6h0a.7.7,0,0,0,.4.6l4.3,2.5.8.2Z" transform="translate(-5.9 -3.4)" fill="#e0840b"/>
          <path d="M28.7,43.2l-3.9-2.3c-.5-.3-.5-.8.2-1.2L28,38a2.2,2.2,0,0,1,2.1-.1L34,40.2c.6.3.5.9-.1,1.2l-3,1.7A2.5,2.5,0,0,1,28.7,43.2Z" transform="translate(-5.9 -3.4)" fill="#ffce44"/>
        </g>
        <path d="M32.3,39.9h0a29.7,29.7,0,0,1-1.4-9.2l-1.3.2-1.4-.2a26.7,26.7,0,0,1-1.4,9.2h0a1.2,1.2,0,0,0,.8,1.4,3.9,3.9,0,0,0,3.9,0A1.2,1.2,0,0,0,32.3,39.9Z" transform="translate(-5.9 -3.4)" fill="#e0840b"/>
        <path d="M29.9,32.3a58.4,58.4,0,0,0,.1,9.5,3.3,3.3,0,0,0,1.5-.5,1.2,1.2,0,0,0,.8-1.4h0a29.3,29.3,0,0,1-1.4-8.5h0Z" transform="translate(-5.9 -3.4)" fill="#bf6f07"/>
        <path d="M40.2,18.1H18.9s-.3,7.2,7.6,13.3l.6.4a5.5,5.5,0,0,0,5,0h0l.5-.4C40.5,25.3,40.2,18.1,40.2,18.1Z" transform="translate(-5.9 -3.4)" fill="#e0840b"/>
        <g clip-path="url(#clip-path)">
          <g>
            <path d="M27.1,24.1l-1.9-1.4a.5.5,0,0,1-.1-.7h0a.4.4,0,0,1,.7-.1l1.9,1.4a.6.6,0,0,1,.1.7h0A.5.5,0,0,1,27.1,24.1Z" transform="translate(-5.9 -3.4)" fill="#ffd72e"/>
            <path d="M25,20.8l-1.9-1.4a.5.5,0,0,1-.1-.7h0a.4.4,0,0,1,.7-.1L25.6,20a.6.6,0,0,1,.1.7h0A.5.5,0,0,1,25,20.8Z" transform="translate(-5.9 -3.4)" fill="#ffd72e"/>
            <path d="M28.2,21l-1.8-1.4a.5.5,0,0,1-.1-.7h0a.4.4,0,0,1,.7-.1l1.8,1.4a.4.4,0,0,1,.1.7h0A.5.5,0,0,1,28.2,21Z" transform="translate(-5.9 -3.4)" fill="#ffd72e"/>
            <path d="M25.2,18.1l-1.9-1.4a.6.6,0,0,1-.1-.7h0a.5.5,0,0,1,.7-.1l1.9,1.4a.5.5,0,0,1,.1.7h0A.5.5,0,0,1,25.2,18.1Z" transform="translate(-5.9 -3.4)" fill="#ffd72e"/>
            <path d="M23.1,14.8l-1.9-1.4a.6.6,0,0,1-.1-.7h0a.5.5,0,0,1,.7-.1L23.7,14a.5.5,0,0,1,.1.7h0A.4.4,0,0,1,23.1,14.8Z" transform="translate(-5.9 -3.4)" fill="#ffd72e"/>
            <path d="M26.4,15l-1.9-1.4a.6.6,0,0,1-.1-.7h0a.5.5,0,0,1,.7-.1L27,14.2a.6.6,0,0,1,.1.7h0A.4.4,0,0,1,26.4,15Z" transform="translate(-5.9 -3.4)" fill="#ffd72e"/>
            <path d="M29.3,36.5,27.5,35a.5.5,0,0,1-.1-.7h0a.5.5,0,0,1,.7,0l1.8,1.4a.4.4,0,0,1,.1.7h0C29.9,36.6,29.6,36.6,29.3,36.5Z" transform="translate(-5.9 -3.4)" fill="#ffd72e"/>
            <path d="M27.2,33.2l-1.8-1.4a.5.5,0,0,1-.1-.7h0A.4.4,0,0,1,26,31l1.8,1.4a.4.4,0,0,1,.1.7h0C27.8,33.3,27.5,33.3,27.2,33.2Z" transform="translate(-5.9 -3.4)" fill="#ffd72e"/>
            <path d="M29.1,39.2l-1.9-1.5a.5.5,0,0,1-.1-.7h0a.6.6,0,0,1,.7-.1l1.9,1.5c.2.1.2.4.1.7h0A.6.6,0,0,1,29.1,39.2Z" transform="translate(-5.9 -3.4)" fill="#ffd72e"/>
            <path d="M32.3,39.4l-1.8-1.5a.5.5,0,0,1-.1-.7h0c.1-.2.5-.2.7-.1l1.8,1.5c.3.1.3.4.1.7h0C32.9,39.5,32.6,39.5,32.3,39.4Z" transform="translate(-5.9 -3.4)" fill="#ffd72e"/>
          </g>
        </g>
        <path d="M21.2,19.2h19V18.1H18.9s-.3,7.2,7.6,13.3l.6.4a4.6,4.6,0,0,0,1.4.5C20.9,26.2,21.2,19.2,21.2,19.2Z" transform="translate(-5.9 -3.4)" fill="#ffce44"/>
        <path d="M40.2,18.1H33.6c.1,3.2-.2,9.6-4.2,14.3a4.7,4.7,0,0,0,2.7-.6h0l.5-.4C40.5,25.3,40.2,18.1,40.2,18.1Z" transform="translate(-5.9 -3.4)" fill="#bf6f07"/>
        <path d="M37.1,13.7c4.2,2.4,4.2,6.3,0,8.7a16.7,16.7,0,0,1-15.1,0c-4.2-2.4-4.2-6.3,0-8.7A16.7,16.7,0,0,1,37.1,13.7Z" transform="translate(-5.9 -3.4)" fill="#ffce44"/>
        <g>
          <ellipse cx="23.7" cy="14.6" rx="8.4" ry="4.9" fill="#e0840b"/>
          <g clip-path="url(#clip-path-2)">
            <g>
              <path d="M30.3,13.7l-2-1.2a.5.5,0,0,1-.1-.7h0a.5.5,0,0,1,.6-.2l2,1.3c.3.1.4.4.2.6h0A.4.4,0,0,1,30.3,13.7Z" transform="translate(-5.9 -3.4)" fill="#ffd72e"/>
              <path d="M33.6,13.6l-2-1.3a.6.6,0,0,1-.2-.7h0a.5.5,0,0,1,.7-.1l2,1.2a.5.5,0,0,1,.2.7h0A.6.6,0,0,1,33.6,13.6Z" transform="translate(-5.9 -3.4)" fill="#ffd72e"/>
              <path d="M30.3,11l-2-1.2c-.3-.1-.3-.4-.2-.7h0a.5.5,0,0,1,.7-.1l2,1.2a.6.6,0,0,1,.2.7h0A.5.5,0,0,1,30.3,11Z" transform="translate(-5.9 -3.4)" fill="#ffd72e"/>
              <path d="M27.9,8l-2-1.3c-.3-.1-.4-.4-.2-.6h0c.1-.3.4-.3.7-.2l2,1.2a.5.5,0,0,1,.1.7h0A.5.5,0,0,1,27.9,8Z" transform="translate(-5.9 -3.4)" fill="#ffd72e"/>
              <path d="M31.1,7.8l-2-1.2a.5.5,0,0,1-.1-.7h0a.6.6,0,0,1,.7-.2l2,1.3a.5.5,0,0,1,.1.7h0A.5.5,0,0,1,31.1,7.8Z" transform="translate(-5.9 -3.4)" fill="#ffd72e"/>
              <path d="M36.3,28.8l-2-1.2a.5.5,0,0,1-.1-.7h0a.4.4,0,0,1,.6-.1L36.9,28a.5.5,0,0,1,.1.7h0A.5.5,0,0,1,36.3,28.8Z" transform="translate(-5.9 -3.4)" fill="#ffd72e"/>
              <path d="M33.9,25.8l-2-1.2a.7.7,0,0,1-.2-.7h0a.5.5,0,0,1,.7-.2l2,1.2a.5.5,0,0,1,.2.7h0A.5.5,0,0,1,33.9,25.8Z" transform="translate(-5.9 -3.4)" fill="#ffd72e"/>
              <path d="M37.2,25.6l-2-1.2c-.3-.1-.3-.4-.2-.7h0a.5.5,0,0,1,.7-.1l2,1.2a.6.6,0,0,1,.2.7h0A.5.5,0,0,1,37.2,25.6Z" transform="translate(-5.9 -3.4)" fill="#ffd72e"/>
              <path d="M36.3,31.5l-2-1.2a.5.5,0,0,1-.1-.7h0a.5.5,0,0,1,.7-.1l2,1.2a.5.5,0,0,1,.1.7h0A.5.5,0,0,1,36.3,31.5Z" transform="translate(-5.9 -3.4)" fill="#ffd72e"/>
              <path d="M39.6,31.4l-2-1.2a.7.7,0,0,1-.2-.7h0a.5.5,0,0,1,.7-.2l2,1.2a.5.5,0,0,1,.2.7h0C40.2,31.5,39.8,31.5,39.6,31.4Z" transform="translate(-5.9 -3.4)" fill="#ffd72e"/>
            </g>
          </g>
        </g>
        <path d="M29.5,15.8a14.9,14.9,0,0,1,5.3-1.5,13.3,13.3,0,0,0-11.2.4c-3.3,1.8-3.3,4.9,0,6.8a11.7,11.7,0,0,0,5.1,1.4C25.9,20.8,26.1,17.8,29.5,15.8Z" transform="translate(-5.9 -3.4)" fill="#bf6f07"/>
      </g>
    </g>
  </g>
</svg>
