<svg id="modules_path" xmlns="http://www.w3.org/2000/svg" width="1198.7" height="761.6" viewBox="0 0 1198.7 761.6">
  <g id="paths">
    <path d="M186.5,585.8,2.9,479.5l140.8-81.1L327.2,504.7ZM7.3,479.5,186.5,583.3l136.4-78.6L143.7,400.9Z" transform="translate(0 -38.4)" fill="#a0b1d8" opacity="0.2"/>
    <path d="M789.6,179.6,726.1,143l97.6-56.4,63.5,36.7ZM731.1,143l58.5,33.7,92.6-53.4L823.7,89.5Z" transform="translate(0 -38.4)" fill="#fff" opacity="0.13"/>
    <path d="M726.1,422l-.5-.3L608,353.9l35.9-20.8.6.3,117.6,67.9ZM612.3,353.9l113.8,65.6,31.7-18.2L643.9,335.6Z" transform="translate(0 -38.4)" fill="#fff" opacity="0.13"/>
    <polygon points="594 656.7 463.3 580.1 531.8 540.2 532.8 542.1 467.6 580.1 594.6 654.5 594 656.7" fill="#fff" opacity="0.13"/>
    <path d="M500.1,282.5l-62.7-36,79.4-45.8,62.6,36Zm-58.3-36L500.1,280l75-43.3-58.3-33.5Z" transform="translate(0 -38.4)" fill="#fff" opacity="0.13"/>
    <polygon points="691.2 322.9 690.1 321 730.1 297.7 731.2 299.5 691.2 322.9" fill="#fff" opacity="0.13"/>
    <path d="M1077.5,468.6,916,375.5l74.5-42.6L1152,426ZM920.3,375.5l157.2,90.6,70.1-40.1L990.5,335.4Z" transform="translate(0 -38.4)" fill="#fff" opacity="0.13"/>
    <path d="M543.5,216.5a10.8,10.8,0,0,1-10.2,0c-2.8-1.6-2.8-4.2,0-5.8a10.8,10.8,0,0,1,10.2,0C546.3,212.3,546.3,214.9,543.5,216.5Z" transform="translate(0 -38.4)" fill="#fff" opacity="0.13"/>
    <path d="M522.6,274.4a11.4,11.4,0,0,1-10.2,0c-2.8-1.6-2.8-4.2,0-5.9a11.4,11.4,0,0,1,10.2,0C525.4,270.2,525.4,272.8,522.6,274.4Z" transform="translate(0 -38.4)" fill="#fff" opacity="0.13"/>
    <path d="M638.4,344.1a11.4,11.4,0,0,1-10.2,0c-2.8-1.6-2.8-4.2,0-5.9a11.4,11.4,0,0,1,10.2,0C641.2,339.9,641.2,342.5,638.4,344.1Z" transform="translate(0 -38.4)" fill="#fff" opacity="0.13"/>
    <path d="M695.3,363.4a11.2,11.2,0,0,1-10.1,0c-2.8-1.6-2.8-4.3,0-5.9a11.2,11.2,0,0,1,10.1,0C698.1,359.1,698.1,361.8,695.3,363.4Z" transform="translate(0 -38.4)" fill="#fff" opacity="0.13"/>
    <path d="M483.9,271.8a11.2,11.2,0,0,1-10.1,0c-2.8-1.7-2.8-4.3,0-5.9a11.2,11.2,0,0,1,10.1,0C486.7,267.5,486.7,270.1,483.9,271.8Z" transform="translate(0 -38.4)" fill="#fff" opacity="0.13"/>
    <polygon points="764.7 671.2 685.9 625.7 648 648 646.7 645.9 685.9 622.8 686.5 623.1 764.7 668.4 789.7 653.7 790.9 655.9 764.7 671.2" fill="#fff" opacity="0.13"/>
    <path d="M493.7,458.3l-63.5-36.7,97.6-56.3L591.3,402Zm-58.5-36.7,58.5,33.8L586.3,402l-58.5-33.8Z" transform="translate(0 -38.4)" fill="#fff" opacity="0.2"/>
    <g opacity="0.13">
      <path d="M595.7,765.9l-63.5-36.7,97.6-56.3,63.5,36.6Zm-58.5-36.7L595.7,763l92.6-53.5-58.5-33.7Z" transform="translate(0 -38.4)" fill="#fff"/>
      <path d="M599.4,697.3a11.2,11.2,0,0,1-10.1,0c-2.8-1.6-2.8-4.2,0-5.9a11.2,11.2,0,0,1,10.1,0C602.2,693.1,602.2,695.7,599.4,697.3Z" transform="translate(0 -38.4)" fill="#fff"/>
      <path d="M654.7,687.8a11.4,11.4,0,0,1-10.2,0c-2.8-1.6-2.8-4.3,0-5.9a11.4,11.4,0,0,1,10.2,0C657.5,683.5,657.5,686.2,654.7,687.8Z" transform="translate(0 -38.4)" fill="#fff"/>
      <path d="M559,743.3a11.4,11.4,0,0,1-10.2,0c-2.8-1.7-2.8-4.3,0-5.9a11.4,11.4,0,0,1,10.2,0C561.8,739,561.8,741.6,559,743.3Z" transform="translate(0 -38.4)" fill="#fff"/>
    </g>
    <g opacity="0.13">
      <polygon points="830.6 336.6 830.6 339.5 935.4 400.3 678.7 551.4 629.3 522.4 624.3 522.4 678.7 554.3 940.4 400.3 830.6 336.6" fill="#fff"/>
    </g>
    <polygon points="636 303.1 516.6 234.9 516.5 232 517.2 232.4 636 300.2 636 303.1" fill="#fff" opacity="0.13"/>
    <polygon points="327.2 318.7 283.8 293.4 283.8 290.5 284.5 290.9 327.2 315.8 478.9 229.2 480.1 231.4 327.2 318.7" fill="#fff" opacity="0.13"/>
    <polygon points="452.4 761.6 363.5 711.4 335.7 727.6 335.2 727.3 287.4 699.8 288.4 697.9 335.7 725.1 363.5 708.9 452.4 759.1 552.5 701.6 553.6 703.4 452.4 761.6" fill="#fff" opacity="0.13"/>
    <path d="M33.6,565.2,0,545.8l33.6-19.4,33.6,19.4ZM4.3,545.8l29.3,16.9,29.3-16.9L33.6,528.9Z" transform="translate(0 -38.4)" fill="#a0b1d8" opacity="0.2"/>
    <path d="M985.4,294.6l-33.6-19.4,33.6-19.4,33.6,19.4Zm-29.3-19.4,29.3,16.9,29.2-16.9-29.2-16.9Z" transform="translate(0 -38.4)" fill="#a0b1d8" opacity="0.2"/>
    <path d="M1124.5,525.5l-33.6-19.4,33.6-19.4,33.6,19.4Zm-29.3-19.4,29.3,16.9,29.2-16.9-29.2-16.9Z" transform="translate(0 -38.4)" fill="#a0b1d8" opacity="0.2"/>
    <path d="M964.9,527.9l-33.6-19.4,33.6-19.3,33.5,19.3Zm-29.3-19.4,29.3,16.9,29.2-16.9-29.2-16.8Z" transform="translate(0 -38.4)" fill="#a0b1d8" opacity="0.2"/>
    <path d="M1165.1,742.3l-33.6-19.4,33.6-19.4,33.6,19.4Zm-29.3-19.4,29.3,16.9,29.2-16.9L1165.1,706Z" transform="translate(0 -38.4)" fill="#a0b1d8" opacity="0.2"/>
    <polygon points="535.3 175.7 637.2 116.8 578.7 82.9 579.8 81 641.5 116.8 539.6 175.7 535.3 175.7" fill="#fff" opacity="0.13"/>
    <path d="M663.9,242.7l-33.6-19.4,33.6-19.4,33.6,19.4Zm-29.3-19.4,29.3,16.9,29.3-16.9-29.3-16.9Z" transform="translate(0 -38.4)" fill="#a0b1d8" opacity="0.2"/>
    <path d="M246.6,173.2,213,153.8l33.6-19.4,33.6,19.4Zm-29.2-19.4,29.2,16.9,29.3-16.9-29.3-16.9Z" transform="translate(0 -38.4)" fill="#a0b1d8" opacity="0.2"/>
    <path d="M322.3,465.3l-33.6-19.4,33.6-19.4,33.6,19.4ZM293,445.9l29.3,16.9,29.3-16.9L322.3,429Z" transform="translate(0 -38.4)" fill="#a0b1d8" opacity="0.2"/>
    <path d="M328.1,77.1,294.6,57.7l33.5-19.3,33.6,19.3ZM298.9,57.7l29.2,16.9,29.3-16.9L328.1,40.9Z" transform="translate(0 -38.4)" fill="#a0b1d8" opacity="0.2"/>
  </g>
</svg>
