<svg id="coin" xmlns="http://www.w3.org/2000/svg" width="42.7" height="51.4" viewBox="0 0 42.7 51.4">
  <g>
    <g>
      <path d="M40.8,55.5l5.3-3.1c4.7-2.9,6.8-10.1,4.1-20.4A39.8,39.8,0,0,0,39.1,12.9c-7.7-7.4-15-9.1-19.8-6.5L14,9.5C9.3,12.4,36,58.1,40.8,55.5Z" transform="translate(-8.7 -5.3)" fill="#ffd715"/>
      <path d="M45.2,50l5.1-2.9a11.6,11.6,0,0,1-2,3.2l-4.9,2.9A11.1,11.1,0,0,0,45.2,50ZM45,34.4l5.1-2.9-.6-1.9-5.1,3A12.7,12.7,0,0,1,45,34.4Zm-2.9-7.2,5.2-3-.9-1.7-5.1,3Zm1.6,3.5,5.1-3a12.2,12.2,0,0,0-.7-1.7L43,29A8.7,8.7,0,0,1,43.7,30.7Zm2.4,16.5L51,44.3a16,16,0,0,0,.3-2.3l-5,2.9C46.2,45.7,46.2,46.5,46.1,47.2ZM46,38.3l4.9-2.9a16.2,16.2,0,0,0-.4-1.9l-5,2.9A18,18,0,0,1,46,38.3Zm.4,4.3,5-2.9c-.1-.7-.1-1.4-.2-2.1l-5,2.9C46.3,41.2,46.3,41.9,46.4,42.6ZM40.3,23.8l5.1-3a14,14,0,0,0-1-1.6l-5.2,3ZM25.8,9.9,30.9,7l-2.2-.9L23.7,9ZM38.1,20.6l5.1-3-1.1-1.5-5.2,3A15.8,15.8,0,0,1,38.1,20.6ZM20.9,8.4l5-3a12.6,12.6,0,0,0-3.9.1L17.1,8.4A9.7,9.7,0,0,1,20.9,8.4Zm8.7,3.8,5-3L32.9,8.1l-5,2.9A10.4,10.4,0,0,1,29.6,12.2Zm3.2,2.6,5.1-3-1.5-1.3-5,2.9A9.3,9.3,0,0,1,32.8,14.8Zm2.9,2.8,5-3-1.3-1.4-5,3Z" transform="translate(-8.7 -5.3)" fill="#ffd715"/>
      <path d="M8.7,21.6c0-12,8.4-16.9,18.8-10.9S46.4,31.2,46.4,43.2,38.1,60.1,27.7,54.1,8.8,33.6,8.7,21.6Z" transform="translate(-8.7 -5.3)" fill="#ffd715"/>
      <path d="M10.4,22.6c0-10.9,7.6-15.4,17.1-10S44.7,31.3,44.7,42.2s-7.6,15.4-17,10S10.5,33.5,10.4,22.6Z" transform="translate(-8.7 -5.3)" fill="#f4bd31"/>
      <path d="M28.5,51.1C19.3,45.9,11.8,33,11.8,22.3c-.1-7.7,3.9-12.1,9.5-11.9-6.4-.8-10.9,3.8-10.9,12.2.1,10.9,7.8,24.1,17.3,29.6,7.3,4.1,13.5,2.4,15.9-3.6C41,53.7,35.2,55,28.5,51.1Z" transform="translate(-8.7 -5.3)" fill="#d89f21"/>
    </g>
    <g>
      <path d="M31.1,42.5a2.9,2.9,0,0,1-.5,1.7l-1.4-.3V38.3A7,7,0,0,1,31.1,42.5Zm4-12.9a1.1,1.1,0,0,0,.1-.5A1.1,1.1,0,0,1,35.1,29.6ZM26.3,21v6.6a8.5,8.5,0,0,1-2.1-5.3,3,3,0,0,1,.5-1.8A2.9,2.9,0,0,1,26.3,21Z" transform="translate(-8.7 -5.3)" fill="#f4bd31"/>
      <path d="M26.3,19.2c-3.1-1.8-7.4-2.2-7.4,3.4s2.3,7.6,5.8,11.2l1.6,1.6v8c-.9-.7-1.8-2.1-2.7-5.4a2.6,2.6,0,0,0-1.3-1.8c-.6-.3-2.5-.9-2.5,1s2.1,5.3,6.5,7.9v3.2l1.9,1V46.2c3.8,2.1,7,1.6,7-3.3s-2.3-6.9-5.3-10l-1.7-1.7V22.1c.6.5,1.9,2,3.1,6.3a3.3,3.3,0,0,0,1.5,2.1,1.6,1.6,0,0,0,2.4-1.4c0-1.4-1.4-5.4-7-8.8V16.2l-1.9-1Zm4.8,23.3c0,2-1.2,2.8-2.9,1.9V37.3C29.8,38.7,31.1,40.7,31.1,42.5ZM26.3,21v8.4a10,10,0,0,1-3.1-6.6C23.2,20.6,24.5,20,26.3,21Z" transform="translate(-8.7 -5.3)" fill="#ffce44"/>
    </g>
  </g>
</svg>
