<svg id="bookmark" xmlns="http://www.w3.org/2000/svg" width="23.2" height="30.3" viewBox="0 0 23.2 30.3"><defs><style>.cls-1{fill:#142056;}</style></defs><g id="bookmark_stroke"><path class="cls-1" d="M19.6,2.8a2.4,2.4,0,0,1,1.4.5,1.7,1.7,0,0,1,.6,1.5h0V27.7L13,22.6,12,22l-1,.6L2.4,27.7V5h0A1.7,1.7,0,0,1,3,3.3a2.4,2.4,0,0,1,1.4-.5H19.6m0-2H4.4a4,4,0,0,0-2.6.9A3.9,3.9,0,0,0,.4,5V31.2L12,24.3l11.6,6.9V5a3.9,3.9,0,0,0-1.4-3.3A4,4,0,0,0,19.6.8Z" transform="translate(-0.4 -0.8)"/></g><g id="bookmark_fill"><path class="cls-1" d="M19.3.8a4.9,4.9,0,0,1,2.9.9A3.9,3.9,0,0,1,23.6,5V31.2L12,24.3.4,31.2V5A3.9,3.9,0,0,1,1.8,1.7,4.9,4.9,0,0,1,4.7.8Z" transform="translate(-0.4 -0.8)"/></g></svg>