<svg class='svg--navIcons' id="ico_bookmark_regular" xmlns="http://www.w3.org/2000/svg" width="25.2" height="41.1" viewBox="0 0 25.2 41.1">
  <path d="M34.9,13.6h-.2L15.7,2a.3.3,0,0,0-.4,0L9.9,5a.4.4,0,0,0-.1.5h0V33.2a1.8,1.8,0,0,0,1,1.7,2.1,2.1,0,0,0,2-.2A24.4,24.4,0,0,0,15,32.4c1.5-1.7,2.9-3.3,4.2-2.6s3.1,4.4,4.7,7.8c.7,1.6,1.5,3.2,2.2,4.5a1.9,1.9,0,0,0,1.6,1h.5a1.9,1.9,0,0,0,.9-.5l5.7-3.6a.4.4,0,0,0,.1-.5h0V13.6ZM15.5,2.8l18.3,11L29,16.5,10.7,5.5ZM29.6,41.2V17l4.6-2.6v24l-4.6,2.9Z" transform="translate(-9.8 -1.9)" fill="#a4cbf5"/>
</svg>
