<svg class='svg--navIcons' id="ico_learn_regular" xmlns="http://www.w3.org/2000/svg" width="45" height="45" viewBox="0 0 45 45">
    <path d="M40.5,16h0c0-.1,0-.2-.2-.3L22.8,5.5h-.4L4.7,15.7H4.5v3.5h.2l4.8,2.8h0v6.3c2.2,4.1,7.6,7,13,7A15.6,15.6,0,0,0,31,33.5V36a1.8,1.8,0,0,0-1.5,1.8,1.8,1.8,0,0,0,3.6,0A1.8,1.8,0,0,0,31.7,36V32.9a14.1,14.1,0,0,0,3.7-4V22.7l4.8-2.8c.2,0,.3-.2.3-.4V16.1ZM32.4,37.8a1.1,1.1,0,0,1-2.2,0,1.1,1.1,0,0,1,2.2,0ZM31.7,24V21.4l8.1-4.7v2.6Zm-8.8,5.2V26.6L31,21.9v2.5Zm-.3-23L39.4,16l-8,4.8-9-5.2a.5.5,0,0,0-.6.1.4.4,0,0,0,.2.5l8.6,5-8,4.7h0L5.6,16Zm.3,29V30.1L31,25.3v7.2A14.3,14.3,0,0,1,22.9,35.2Zm11.8-6.6a13.8,13.8,0,0,1-3,3.4V24.9l3-1.7Z" fill="#a4cbf5"/>
</svg>
