<svg class='svg--navIcons'  xmlns="http://www.w3.org/2000/svg" viewBox="0 0 28.3 38.7"><defs><style>.cls-1{fill:#a4cbf5;}</style></defs><g id="Layer_2" data-name="Layer 2"><g id="Layer_1-2" data-name="Layer 1"><path class="cls-1" d="M28.2,17.5h.1A9.8,9.8,0,0,0,23.4,9h-.1a3.4,3.4,0,0,0-3.4,0h-.1l-2.2,1.3-.5.2a3.4,3.4,0,0,0-1.6,2.9h0L25.3,19h0l.2.2V19l2.7-1.5ZM20.1,9.3h0a2.7,2.7,0,0,1,3,0h.1a9,9,0,0,1,4.7,7.9l-2.4,1.4a9.7,9.7,0,0,0-4.9-8.1h0a3.9,3.9,0,0,0-1.8-.4Z"/><path class="cls-1" d="M16.5,3.4a5.5,5.5,0,0,0,2.7,4.7h.1a1.9,1.9,0,0,0,1.8,0h.2l2.2-1.4h0a1.5,1.5,0,0,0,1-1.6h0A4.9,4.9,0,0,0,22,.3h0A1.4,1.4,0,0,0,20.6.1h-.1L17.8,1.6h-.4a2,2,0,0,0-.9,1.7ZM21.8.6h0A4.7,4.7,0,0,1,24.2,5h0a1.3,1.3,0,0,1-.6,1.1L22,7.1a2,2,0,0,0,.1-.7h0a5.3,5.3,0,0,0-2.7-4.7h-.1l-.6-.3,1.9-1A1.6,1.6,0,0,1,21.8.6Z"/><path class="cls-1" d="M11,27.7h0a8.4,8.4,0,0,0-4.2-7.3H6.7a3,3,0,0,0-2.9,0H3.7L1.8,21.5l-.4.2A3,3,0,0,0,0,24.2H0l8.4,4.9h.2V29l2.3-1.3Zm-7.1-7H4a2.4,2.4,0,0,1,2.6,0h0a8.1,8.1,0,0,1,4.1,6.8L8.6,28.7a8.5,8.5,0,0,0-4.2-7h0a4.1,4.1,0,0,0-1.6-.3Z"/><path class="cls-1" d="M.9,15.7a4.5,4.5,0,0,0,2.3,3.9h0a1.2,1.2,0,0,0,1.6,0H5l1.9-1.1h0a1.5,1.5,0,0,0,.9-1.4h0A4.3,4.3,0,0,0,5.6,13h0a1.1,1.1,0,0,0-1.2-.2H4.3L2,14.1H1.7a1.4,1.4,0,0,0-.8,1.4Zm4.6-2.5h0a4.4,4.4,0,0,1,2,3.8h0A1.2,1.2,0,0,1,7,18l-1.4.8c0-.2.1-.4.1-.6h0a4.6,4.6,0,0,0-2.3-4H3.3l-.5-.3L4.4,13A2.2,2.2,0,0,1,5.5,13.2Z"/><path class="cls-1" d="M19.3,32.4h.1a8.6,8.6,0,0,0-4.2-7.3h-.1a3,3,0,0,0-2.9,0h-.1l-2,1.2H9.8a3,3,0,0,0-1.4,2.5h0l8.4,4.9H17v-.2l2.3-1.3Zm-7-7h.1a2.3,2.3,0,0,1,2.5,0H15a7.8,7.8,0,0,1,4,6.9l-2,1.1a8.5,8.5,0,0,0-4.2-7h-.1a4,4,0,0,0-1.5-.3Z"/><path class="cls-1" d="M9.2,20.4a4.7,4.7,0,0,0,2.4,4h0a1.5,1.5,0,0,0,1.6,0h.1l1.9-1.2h.1a1.7,1.7,0,0,0,.9-1.4h0A4.5,4.5,0,0,0,14,17.7h-.1a1.1,1.1,0,0,0-1.2-.2h0l-2.4,1.3H10a1.6,1.6,0,0,0-.8,1.4Zm4.6-2.5h0a4.2,4.2,0,0,1,2,3.8h0a1.2,1.2,0,0,1-.4,1l-1.5.8a1.4,1.4,0,0,0,.2-.6h0a4.7,4.7,0,0,0-2.4-4h0l-.6-.2,1.7-1A1.8,1.8,0,0,1,13.8,17.9Z"/><path class="cls-1" d="M27.7,37.2h.1a8.5,8.5,0,0,0-4.3-7.3h0a3.2,3.2,0,0,0-3,0h0l-2,1.1-.3.2a2.9,2.9,0,0,0-1.5,2.5h0l8.4,4.9h.3v-.2l2.2-1.3Zm-7-7h0a2.4,2.4,0,0,1,2.6,0h.1a8,8,0,0,1,4,6.8l-2,1.2a8.5,8.5,0,0,0-4.2-7h-.1a4.2,4.2,0,0,0-1.5-.4Z"/><path class="cls-1" d="M17.6,25.1a4.6,4.6,0,0,0,2.3,4H20a1.5,1.5,0,0,0,1.6,0h.1L23.6,28h.1a1.8,1.8,0,0,0,.8-1.5h0a4.6,4.6,0,0,0-2.1-4.1h-.1a1.3,1.3,0,0,0-1.2-.1H21l-2.3,1.2h0l-.3.2a1.6,1.6,0,0,0-.8,1.4Zm4.6-2.4h0a4.1,4.1,0,0,1,2,3.8h0a1.4,1.4,0,0,1-.5,1l-1.4.8a1.5,1.5,0,0,0,.1-.7h0a4.5,4.5,0,0,0-2.3-3.9h0l-.6-.3,1.7-.9A1.2,1.2,0,0,1,22.2,22.7Z"/></g></g></svg>