<svg class='svg--navIcons' id="ico_profile_regular" xmlns="http://www.w3.org/2000/svg" width="25.6" height="38.6" viewBox="0 0 25.6 38.6">
    <path d="M35.2,38.2c.1,0,.1,0,.1-.1h0a19.5,19.5,0,0,0-9.8-16.9h-.1a6.6,6.6,0,0,0-6.8,0h-.2l-4.5,2.6-.9.4A6.9,6.9,0,0,0,9.7,30v.3L29.2,41.5h0l.6.3v-.4l5.3-3.1h.1ZM18.9,21.8c0-.1.1-.1.1-.2a6.4,6.4,0,0,1,6,0l.2.2a18.6,18.6,0,0,1,9.3,16l-4.8,2.7A19.7,19.7,0,0,0,20,24.2h-.2a7.3,7.3,0,0,0-3.5-.9Z" transform="translate(-9.7 -3.2)" fill="#a4cbf5"/>
    <path d="M11.8,10.1a10.7,10.7,0,0,0,5.3,9.3h.1a3.5,3.5,0,0,0,1.9.6,3.3,3.3,0,0,0,1.9-.6h.2l4.5-2.6h.1a3.6,3.6,0,0,0,2-3.3h0a10.5,10.5,0,0,0-5-9.5h-.1a3.6,3.6,0,0,0-2.9-.5h-.1L14.2,6.4h0l-.6.3A3.5,3.5,0,0,0,11.8,10ZM22.3,4.4h.1a9.9,9.9,0,0,1,4.7,8.7h0a3.1,3.1,0,0,1-1.2,2.4l-3.3,1.9a4,4,0,0,0,.3-1.5h0a10.7,10.7,0,0,0-5.3-9.3h-.1a3.9,3.9,0,0,0-1.4-.5L20,4A2.9,2.9,0,0,1,22.3,4.4Z" transform="translate(-9.7 -3.2)" fill="#a4cbf5"/>
</svg>
